<?xml version="1.0" encoding="utf-8"?>
<!-- Generator: Adobe Illustrator 20.0.0, SVG Export Plug-In . SVG Version: 6.00 Build 0)  -->
<svg version="1.1" id="Layer_1" xmlns="http://www.w3.org/2000/svg" xmlns:xlink="http://www.w3.org/1999/xlink" x="0px" y="0px"
	 viewBox="0 0 750 462" enable-background="new 0 0 750 462" xml:space="preserve">
<g>
	<path fill="#4D4D4D" d="M106.9,207c-7.1-6.8-17.6-10.5-26.8-10.5c-22.6,0-36.3,17.2-36.3,38.9c0,17.3,10.1,35.2,36.3,35.2
		c8.3,0,15.5-1.8,23.8-8.4v-18.7H77v-17.8h45.2v44.4c-10.4,11.9-23.5,19-42,19c-39.6,0-55.7-26.1-55.7-53.8
		c0-29.7,18.5-57.1,55.7-57.1c14.2,0,28.3,5.4,39.2,16.1L106.9,207z"/>
	<path fill="#4D4D4D" d="M156.3,212.5l1.4,8.6c5.7-9.2,13.4-10.5,20.9-10.5c7.7,0,15.1,3,19.1,7.1l-8.3,16
		c-3.8-3.2-7.2-4.8-13.3-4.8c-9.6,0-18.5,5.1-18.5,18.8v39.2h-18.4v-74.3H156.3z"/>
	<path fill="#4D4D4D" d="M265.8,212.5h17.6v74.3h-17.3l-0.9-10.8c-4.2,8.7-15.8,13-24.1,13.1c-22,0.2-38.3-13.4-38.3-39.5
		c0-25.6,17-39,38.7-38.9c9.9,0,19.4,4.7,23.6,12L265.8,212.5z M221.3,249.5c0,14.2,9.8,22.6,22,22.6c28.9,0,28.9-45,0-45
		C231,227.1,221.3,235.3,221.3,249.5z"/>
	<path fill="#4D4D4D" d="M301.2,317.7V212.5h17.2l1.2,10.2c5.7-8.3,15.7-11.9,24.1-11.9c22.9,0,38.1,17,38.1,38.9
		c0,21.7-13.7,38.9-37.5,38.9c-7.8,0-19.4-2.4-24.7-10.5v39.8H301.2z M363.4,249.7c0-11.6-7.8-21.1-21.1-21.1
		c-13.3,0-21.1,9.5-21.1,21.1c0,11.6,8.6,21.1,21.1,21.1C354.8,270.7,363.4,261.3,363.4,249.7z"/>
	<path fill="#4D4D4D" d="M413.3,256.1c1.2,9.2,9.2,15.8,22.1,15.8c6.8,0,15.7-2.6,19.9-6.9l11.7,11.6c-7.8,8.1-20.6,12-31.9,12
		c-25.6,0-40.8-15.8-40.8-39.6c0-22.6,15.4-38.9,39.5-38.9c24.9,0,40.4,15.4,37.5,45.9H413.3z M453.6,240.9
		c-1.2-9.6-8.7-14.5-19.3-14.5c-9.9,0-18.1,4.8-20.8,14.5H453.6z"/>
	<path fill="#4D4D4D" d="M558.3,181.1h19.9v105.6h-12.4v0.2l-55.4-71.2v71.1h-19.9V181.3h16.1l51.7,65.4V181.1z"/>
	<path fill="#4D4D4D" d="M613,256.1c1.2,9.2,9.2,15.8,22.1,15.8c6.8,0,15.7-2.6,19.9-6.9l11.7,11.6c-7.8,8.1-20.6,12-31.9,12
		c-25.6,0-40.8-15.8-40.8-39.6c0-22.6,15.4-38.9,39.5-38.9c24.9,0,40.4,15.4,37.5,45.9H613z M653.4,240.9
		c-1.2-9.6-8.7-14.5-19.3-14.5c-9.9,0-18.1,4.8-20.8,14.5H653.4z"/>
	<path fill="#4D4D4D" d="M710.1,191.5v21.1h20.5v15.8H710v32.1c0,7.1,3.9,10.5,9.6,10.5c2.9,0,6.2-0.9,8.9-2.3l5.1,15.7
		c-5.3,2.1-9.6,3-15.2,3.2c-16.1,0.6-26.7-8.6-26.7-27.1v-32.1h-13.9v-15.8h13.9v-19.1L710.1,191.5z"/>
</g>
<path fill="#F19448" d="M320.2,98.5c0.9,51.4-40.1,93.9-91.5,94.7c-51.4,0.9-93.8-40.1-94.7-91.5C133.1,50.3,174.1,7.9,225.5,7
	C276.9,6.1,319.3,47.1,320.2,98.5z"/>
<path fill="#94C053" d="M379,347.2c0.3,17.7-13.8,32.3-31.5,32.6c-17.7,0.3-32.3-13.8-32.6-31.5c-0.3-17.7,13.8-32.3,31.5-32.6
	C364.1,315.4,378.7,329.5,379,347.2z"/>
<path fill="#4DABC5" d="M515.5,94.2c0.5,27.6-21.5,50.3-49,50.8c-27.5,0.5-50.3-21.5-50.7-49c-0.5-27.6,21.5-50.3,49-50.7
	C492.3,44.7,515,66.6,515.5,94.2z"/>
<path fill="#0A71B3" d="M363,168.1c0.2,13.4-10.5,24.5-23.9,24.8c-13.4,0.2-24.5-10.5-24.8-23.9c-0.2-13.4,10.5-24.5,23.9-24.8
	C351.6,144,362.7,154.7,363,168.1z"/>
<ellipse fill="#FCE90A" cx="363" cy="67.2" rx="26.9" ry="26.9"/>
<path fill="#00632E" d="M302.4,358c0,11.7-9.5,21.1-21.1,21.1c-11.7,0-21.1-9.5-21.1-21.1c0-11.7,9.5-21.1,21.1-21.1
	C293,336.8,302.4,346.3,302.4,358z"/>
<path fill="#D40050" d="M326.2,423.4c0,12-9.7,21.6-21.6,21.6c-12,0-21.7-9.7-21.7-21.6c0-12,9.7-21.6,21.7-21.6
	C316.5,401.7,326.2,411.4,326.2,423.4z"/>
<path fill="#868789" d="M405.4,123.3c0,9.3-7.6,16.9-16.9,16.9c-9.3,0-16.9-7.6-16.9-16.9c0-9.3,7.5-16.9,16.9-16.9
	C397.8,106.4,405.4,114,405.4,123.3z"/>
<path fill="#92117E" d="M427.6,178.5c0,12.3-10,22.3-22.3,22.3c-12.3,0-22.2-10-22.2-22.3s10-22.3,22.2-22.3
	C417.7,156.3,427.6,166.2,427.6,178.5z"/>
</svg>
